<svg width="38" height="38" viewBox="0 0 38 38" fill="none" xmlns="http://www.w3.org/2000/svg">
<g id="Bootstrap logo" clip-path="url(#clip0_1218_653)">
<path id="Vector" d="M0 33.1002C0 35.8065 2.19376 38 4.89977 38H33.1001C35.8065 38 38 35.8062 38 33.1002V4.89992C38 2.19346 35.8062 0 33.1002 0H4.89992C2.19346 0 0 2.19376 0 4.89977V33.1002Z" fill="#DADADA"/>
<path id="Vector_2" d="M15.7578 16.8088V11.4275H20.4946C20.9458 11.4275 21.3808 11.465 21.7997 11.5403C22.2185 11.6154 22.5892 11.7496 22.9115 11.943C23.2336 12.1364 23.4914 12.4049 23.6848 12.7486C23.8781 13.0923 23.9749 13.5328 23.9749 14.0696C23.9749 15.0364 23.6848 15.7347 23.1047 16.1643C22.5248 16.594 21.7836 16.8088 20.8813 16.8088H15.7578ZM10.6986 7.49609V30.5039H21.848C22.8792 30.5039 23.8836 30.3751 24.861 30.1172C25.8385 29.8594 26.7085 29.462 27.4712 28.925C28.2337 28.3879 28.8406 27.695 29.2917 26.8466C29.743 25.9979 29.9685 24.9936 29.9685 23.8336C29.9685 22.3942 29.6193 21.1644 28.9212 20.144C28.223 19.1235 27.1649 18.4092 25.7471 18.001C26.7782 17.507 27.5571 16.8732 28.0835 16.0998C28.6097 15.3265 28.8729 14.3598 28.8729 13.1997C28.8729 12.1256 28.6956 11.2234 28.3411 10.4929C27.9867 9.76259 27.4872 9.17715 26.8427 8.73673C26.1983 8.29632 25.4249 7.97941 24.5226 7.78614C23.6204 7.59273 22.6214 7.49609 21.5258 7.49609H10.6986ZM15.7578 26.5725V20.2567H21.268C22.3636 20.2567 23.2444 20.509 23.9104 21.014C24.5763 21.5188 24.9094 22.362 24.9094 23.5435C24.9094 24.1451 24.8073 24.6391 24.6032 25.0258C24.3991 25.4125 24.1252 25.7187 23.7814 25.9442C23.4378 26.1698 23.0403 26.3309 22.5892 26.4277C22.1379 26.5241 21.6655 26.5725 21.1713 26.5725H15.7578Z" fill="#111111"/>
</g>
<defs>
<clipPath id="clip0_1218_653">
<rect width="38" height="38" fill="white"/>
</clipPath>
</defs>
</svg>
