<svg width="40" height="40" viewBox="0 0 38 38" fill="none" xmlns="http://www.w3.org/2000/svg">
<g id="file_type_node2 logo">
<path id="Vector" d="M19 35.625C18.5515 35.6252 18.1108 35.5072 17.7223 35.283L13.6563 32.8759C13.0495 32.5363 13.3451 32.4164 13.5458 32.3463C14.1912 32.1469 14.8091 31.8677 15.3853 31.5151C15.4335 31.4927 15.4866 31.4831 15.5396 31.4871C15.5926 31.491 15.6437 31.5084 15.6881 31.5376L18.8124 33.3937C18.8706 33.4245 18.9354 33.4405 19.0012 33.4405C19.067 33.4405 19.1318 33.4245 19.19 33.3937L31.3738 26.3613C31.4308 26.3271 31.4779 26.2788 31.5106 26.2209C31.5433 26.163 31.5604 26.0976 31.5602 26.0312V11.9641C31.5602 11.8965 31.5429 11.8302 31.5098 11.7713C31.4768 11.7124 31.4291 11.6631 31.3714 11.628L19.1876 4.60156C19.1302 4.5692 19.0654 4.5522 18.9994 4.5522C18.9335 4.5522 18.8687 4.5692 18.8112 4.60156L6.63459 11.6304C6.5765 11.6647 6.52828 11.7135 6.49457 11.7719C6.46087 11.8304 6.44283 11.8966 6.44221 11.9641V26.0252C6.44238 26.0916 6.46017 26.1566 6.49376 26.2138C6.52736 26.271 6.57555 26.3182 6.6334 26.3506L9.97502 28.2791C11.786 29.184 12.8951 28.1176 12.8951 27.0465V13.1634C12.8951 13.0689 12.9326 12.9783 12.9994 12.9115C13.0662 12.8447 13.1569 12.8072 13.2513 12.8072H14.7951C14.8896 12.8072 14.9802 12.8447 15.047 12.9115C15.1138 12.9783 15.1513 13.0689 15.1513 13.1634V27.0477C15.1513 29.4642 13.8356 30.8477 11.5437 30.8477C10.555 30.8649 9.58174 30.6005 8.73765 30.0853L5.53496 28.2482C5.14616 28.0218 4.82355 27.6974 4.59934 27.3073C4.37513 26.9172 4.25716 26.4752 4.25721 26.0252V11.9641C4.25605 11.5134 4.37352 11.0704 4.59781 10.6796C4.8221 10.2888 5.14531 9.96385 5.53496 9.73749L17.7199 2.70275C18.1124 2.48801 18.5526 2.37546 19 2.37546C19.4474 2.37546 19.8876 2.48801 20.2801 2.70275L32.4639 9.73749C32.8527 9.96347 33.1753 10.2874 33.3998 10.6771C33.6242 11.0668 33.7425 11.5085 33.7428 11.9581V26.0252C33.7422 26.4752 33.6238 26.9171 33.3994 27.3071C33.175 27.697 32.8525 28.0215 32.4639 28.2482L20.2801 35.283C19.8909 35.5076 19.4494 35.6255 19 35.625ZM23.142 25.8198C27.0026 25.8198 29.2161 24.2998 29.2161 21.6446C29.2161 19.0131 27.4348 18.3112 23.693 17.8172C19.9096 17.3161 19.5249 17.0584 19.5249 16.1726C19.5249 15.4411 19.8503 14.4649 22.6528 14.4649C25.156 14.4649 26.0787 15.0041 26.4528 16.6915C26.4708 16.769 26.5143 16.8383 26.5763 16.8882C26.6383 16.9381 26.7152 16.9659 26.7948 16.967H28.3813C28.4299 16.9663 28.478 16.9557 28.5224 16.9357C28.5668 16.9158 28.6066 16.887 28.6394 16.851C28.6723 16.8151 28.6974 16.7728 28.7132 16.7268C28.7291 16.6807 28.7353 16.632 28.7316 16.5834C28.487 13.6764 26.5561 12.3215 22.6516 12.3215C19.1781 12.3215 17.106 13.7881 17.106 16.2462C17.106 18.9133 19.1675 19.6496 22.502 19.9797C26.4908 20.3704 26.8007 20.9534 26.8007 21.7384C26.8007 23.1004 25.7082 23.6811 23.1408 23.6811C19.9168 23.6811 19.2066 22.8712 18.9691 21.2681C18.9554 21.1851 18.9127 21.1095 18.8485 21.055C18.7844 21.0004 18.703 20.9703 18.6188 20.9701H17.0418C16.9474 20.9701 16.8567 21.0076 16.7899 21.0744C16.7231 21.1412 16.6856 21.2318 16.6856 21.3263C16.6891 23.3724 17.8066 25.8198 23.1385 25.8198H23.142Z" fill="#DADADA"/>
</g>
</svg>
