<svg width="38" height="38" viewBox="0 0 38 38" fill="none" xmlns="http://www.w3.org/2000/svg">
<g id="SQL logo" clip-path="url(#clip0_1218_460)">
<path id="Vector" d="M16.6957 37.9329C14.8621 37.5849 13.2791 36.3886 12.5095 34.7692C12.171 34.0567 12.0269 33.3837 12.0294 32.5254C12.0362 30.0588 13.6619 27.9991 16.1875 27.2566C16.6527 27.1198 16.9598 27.0837 17.6731 27.0819C18.1676 27.0808 18.713 27.1056 18.8851 27.1374L19.1978 27.1952L19.5828 26.4821C20.3688 25.0259 21.5938 23.8819 23.1775 23.1252C24.4839 22.5009 25.3049 22.3193 26.8214 22.3193C27.8836 22.3193 28.13 22.3438 28.8153 22.517C31.7746 23.2651 34.0812 25.481 34.8072 28.2732C34.989 28.9723 35.0796 30.54 34.9739 31.1549L34.9017 31.5749L35.3161 31.6634C36.3549 31.8851 37.2513 32.5775 37.7096 33.512C38.1628 34.4361 38.0799 35.6318 37.5019 36.5053C37.2068 36.9512 36.6285 37.4468 36.1459 37.6672C35.8985 37.7802 35.635 37.9032 35.5603 37.9406C35.3926 38.0246 17.1394 38.0171 16.6957 37.9329ZM35.6718 36.9021C36.1854 36.6585 36.6933 36.1138 36.9043 35.5803C37.3423 34.4735 36.758 33.1874 35.5925 32.6927C35.2982 32.5677 35.0783 32.5388 34.4646 32.5443C34.0452 32.5481 33.7022 32.5229 33.7022 32.4883C33.7022 32.4536 33.7801 32.1289 33.8753 31.7667C34.1188 30.8399 34.1164 29.3622 33.8696 28.4597C33.3259 26.4697 31.9162 24.8098 29.9879 23.8893C29.1406 23.4848 28.3347 23.2998 27.2335 23.2569C25.604 23.1935 24.4664 23.4384 23.2127 24.1228C21.7509 24.9208 20.4907 26.3669 20.0023 27.8069C19.9083 28.0839 19.7944 28.3101 19.7491 28.3095C19.7036 28.309 19.4381 28.2368 19.1585 28.149C18.3808 27.9047 17.0545 27.9196 16.2784 28.1812C15.4971 28.4446 14.9347 28.7821 14.3491 29.3391C13.4713 30.1739 12.9838 31.3118 12.9838 32.5254C12.9838 34.3278 14.0243 35.9078 15.7172 36.676C16.6902 37.1175 16.3535 37.1042 26.2348 37.0896L35.3049 37.0761L35.6718 36.9021ZM9.50217 33.4139C6.22079 32.9896 3.69508 32.2035 1.82683 31.025C1.05598 30.5387 0.523755 29.9948 0.223674 29.3867L0.00012207 28.9336L0.0206028 16.6673L0.0410879 4.40098L0.227772 4.06678C0.699685 3.22199 1.61978 2.50113 3.08468 1.82863C4.93694 0.97827 7.07296 0.446646 10.0495 0.0951461C11.2752 -0.0496013 15.4377 -0.0240073 16.6957 0.136016C21.328 0.725266 24.9228 2.1693 26.0687 3.90116C26.5203 4.58362 26.5086 4.33625 26.5086 13.2535V21.4405L26.2545 21.478C26.1148 21.4987 25.7981 21.5362 25.5509 21.5614C22.9999 21.8212 20.3545 23.5038 18.9984 25.7289L18.7208 26.1844L17.6301 26.2335C16.3413 26.2916 15.6847 26.4491 14.7049 26.9351C13.0226 27.7696 11.8202 29.2164 11.3299 30.9961C11.1945 31.4877 11.1544 31.844 11.1517 32.5814L11.146 33.5326L10.7139 33.5237C10.4763 33.5189 9.93004 33.4695 9.50001 33.4139H9.50217ZM16.1728 22.1077C15.5573 21.6094 15.025 21.1774 14.9899 21.1479C14.9546 21.1184 15.0827 21.0066 15.274 20.8996C15.6984 20.6624 16.2448 20.0945 16.4768 19.6496C17.0438 18.5623 17.0312 17.2099 16.4438 16.1338C15.798 14.9503 14.4465 14.3294 12.9153 14.5129C12.0769 14.6133 11.5517 14.8377 10.9978 15.332C10.1235 16.1123 9.82068 16.878 9.86666 18.192C9.89283 18.9391 9.92071 19.0734 10.1447 19.5269C10.6266 20.5029 11.6344 21.2324 12.661 21.3483C13.0472 21.392 13.0807 21.4162 13.8482 22.2036L14.638 23.0139H15.9649H17.2919L16.1728 22.1077ZM12.8244 19.5636C12.2866 19.3033 12.0824 18.8573 12.0824 17.943C12.0824 17.3481 12.1126 17.1744 12.2659 16.8769C12.5111 16.4019 12.9999 16.1163 13.4794 16.1679C13.9511 16.2186 14.1963 16.4006 14.4458 16.8853C14.6351 17.2531 14.6624 17.3925 14.6602 17.9783C14.6602 18.7009 14.5235 19.0714 14.1426 19.4094C13.7446 19.7626 13.3346 19.8105 12.8244 19.5636ZM7.41378 21.2951C8.82769 20.984 9.59571 19.8542 9.18854 18.6846C8.98354 18.0956 8.55021 17.7278 7.4919 17.2442C7.00315 17.0209 6.56605 16.7926 6.52059 16.7368C6.34262 16.5187 6.34301 16.3743 6.52059 16.1758C6.79598 15.8703 7.42288 15.8557 8.27169 16.135L8.91919 16.348L8.897 15.5236L8.87481 14.6991L8.44477 14.6015C7.79443 14.4541 6.3887 14.4613 5.83565 14.615C4.72671 14.9231 4.14236 15.6146 4.14601 16.6144C4.15169 17.6433 4.63561 18.1311 6.3466 18.8238C7.07046 19.1168 7.15336 19.6644 6.50631 19.8789C6.20686 19.9781 6.12162 19.9761 5.64777 19.8594C5.35839 19.7881 4.91936 19.6297 4.67208 19.5074L4.22248 19.285V20.1775V21.0701L4.67208 21.1895C4.91936 21.2551 5.15686 21.3206 5.19987 21.3349C5.37859 21.3943 7.10226 21.3633 7.41201 21.2951H7.41378ZM22.5209 20.5147V19.7314H21.2698H20.0188V17.1577V14.584H19.0023H17.9859V17.941V21.298H20.2534H22.5209V20.5147ZM16.5002 7.08362C18.5392 6.85816 20.2123 6.45038 21.2698 5.92119C21.9646 5.57352 22.1312 5.44828 22.3983 5.07279C23.2242 3.91165 21.3749 2.74416 17.7904 2.16375C14.4227 1.61845 9.98472 1.74179 7.14425 2.45964C1.28346 3.94083 3.59386 6.66167 11.1679 7.19808C12.411 7.28611 15.2128 7.22599 16.5002 7.08362Z" fill="#DADADA"/>
</g>
<defs>
<clipPath id="clip0_1218_460">
<rect width="38" height="38" fill="white"/>
</clipPath>
</defs>
</svg>
